<svg width="56" height="56" viewBox="0 0 56 56" fill="none" xmlns="http://www.w3.org/2000/svg">
  <rect width="56" height="56" rx="12" fill="#FF9900"/>
  <!-- Cognizant C Icon -->
  <g transform="translate(8, 8)">
    <!-- Back C shape (darker blue) -->
    <path d="M20 0C8.954 0 0 8.954 0 20s8.954 20 20 20c5.523 0 10.523-2.239 14.142-5.858l-5.303-5.303C26.34 31.34 23.295 32.5 20 32.5c-6.904 0-12.5-5.596-12.5-12.5S13.096 7.5 20 7.5c3.295 0 6.34 1.16 8.839 3.661l5.303-5.303C30.523 2.239 25.523 0 20 0z" fill="#1A4B8E"/>
    <!-- Front C shape (lighter blue) -->
    <path d="M24 5C15.716 5 9 11.716 9 20s6.716 15 15 15c4.142 0 7.893-1.679 10.607-4.393l-3.978-3.978C23.755 28.504 21.971 29.375 24 29.375c-5.178 0-9.375-4.197-9.375-9.375S18.822 10.625 24 10.625c2.471 0 4.755.871 6.629 2.746l3.978-3.978C31.893 6.679 28.142 5 24 5z" fill="#0D629A" transform="translate(2, -2)"/>
  </g>
</svg>
